<svg width="2600" height="541" xmlns="http://www.w3.org/2000/svg" fill="none">

 <g>
  <title>Layer 1</title>
  <path id="svg_1" fill="#1DA1F2" d="m338.916,97.73c-0.024,-0.9764 -0.286,-1.9322 -0.762,-2.7849c-0.476,-0.8527 -1.152,-1.5768 -1.971,-2.1099c-0.818,-0.533 -1.754,-0.859 -2.726,-0.9498c-0.973,-0.0907 -1.953,0.0564 -2.856,0.4288l-82.83,35.4258c-1.073,0.46 -1.989,1.223 -2.634,2.197c-0.646,0.973 -0.992,2.114 -0.997,3.282l0,12.743c0,0.799 0.198,1.585 0.576,2.289c0.378,0.703 0.923,1.302 1.589,1.744c0.665,0.441 1.429,0.711 2.225,0.786c0.795,0.075 1.596,-0.048 2.332,-0.358l83.817,-35.713c1.319,-0.559 2.443,-1.495 3.231,-2.691c0.787,-1.196 1.204,-2.599 1.197,-4.031l-0.191,-10.258z" clip-rule="evenodd" fill-rule="evenodd"/>
  <path id="svg_2" fill="#1DA1F2" d="m228.848,127.741l-83.116,-35.4895c-0.729,-0.3417 -1.521,-0.5262 -2.326,-0.5415c-1.141,0.0057 -2.253,0.3615 -3.186,1.0194c-0.84,0.5183 -1.531,1.2458 -2.006,2.1114c-0.474,0.8655 -0.716,1.8395 -0.702,2.8266l0,9.5576c-0.001,1.574 0.46,3.114 1.327,4.428c0.866,1.314 2.1,2.344 3.548,2.963l83.753,35.776c0.699,0.286 1.457,0.397 2.209,0.323c0.751,-0.075 1.473,-0.333 2.102,-0.751c0.628,-0.418 1.145,-0.984 1.504,-1.648c0.36,-0.664 0.551,-1.406 0.557,-2.161l0,-12.934c-0.004,-1.173 -0.353,-2.318 -1.005,-3.293c-0.652,-0.975 -1.577,-1.736 -2.659,-2.187l0,0z" clip-rule="evenodd" fill-rule="evenodd"/>
  <path id="svg_3" fill="#1DA1F2" d="m247.836,164.728c-1.067,0.444 -1.976,1.197 -2.612,2.162c-0.636,0.965 -0.969,2.098 -0.956,3.254l0,14.017c0.025,0.498 0.166,0.983 0.413,1.416c0.246,0.433 0.591,0.803 1.006,1.079c0.415,0.275 0.889,0.45 1.384,0.509c0.495,0.059 0.997,0.001 1.466,-0.169l90.539,-38.739l5.99,-2.516l5.957,-2.549l18.477,-8.06c1.402,-0.598 2.595,-1.598 3.429,-2.874c0.833,-1.276 1.27,-2.77 1.255,-4.294l0,-8.283c0.012,-0.976 -0.22,-1.939 -0.677,-2.802c-0.456,-0.863 -1.122,-1.597 -1.936,-2.136c-0.943,-0.635 -2.048,-0.989 -3.186,-1.019c-0.826,0.001 -1.642,0.186 -2.389,0.541l-15.037,6.372l-5.957,2.517l-5.957,2.548l-91.209,39.026z" clip-rule="evenodd" fill-rule="evenodd"/>
  <path id="svg_4" fill="#1DA1F2" d="m228.848,164.727l-91.431,-39.153l-5.958,-2.485l-5.957,-2.58l-15.101,-6.372c-0.74,-0.298 -1.528,-0.46 -2.325,-0.477c-0.777,-0.009 -1.548,0.136 -2.268,0.427c-0.72,0.29 -1.376,0.72 -1.93,1.265c-0.553,0.545 -0.994,1.193 -1.296,1.909c-0.302,0.715 -0.46,1.484 -0.464,2.26l0,9.239c-0.008,1.253 0.354,2.48 1.039,3.528c0.686,1.048 1.665,1.871 2.816,2.366l19.433,8.283l5.958,2.58l5.989,2.549l90.093,38.484c0.54,0.226 1.126,0.319 1.709,0.27c0.582,-0.049 1.145,-0.237 1.639,-0.55c0.494,-0.313 0.906,-0.74 1.199,-1.246c0.294,-0.506 0.461,-1.076 0.487,-1.66l0,-13.189c0.01,-1.167 -0.332,-2.31 -0.979,-3.282c-0.648,-0.971 -1.572,-1.726 -2.653,-2.166l0,0z" clip-rule="evenodd" fill-rule="evenodd"/>
  <path id="svg_5" fill="#1DA1F2" d="m410.756,139.56c0.017,-0.989 -0.22,-1.965 -0.688,-2.835c-0.469,-0.87 -1.153,-1.606 -1.988,-2.135c-0.94,-0.644 -2.047,-0.998 -3.186,-1.02c-0.804,0.016 -1.597,0.2 -2.325,0.542l-16.407,6.977l-5.957,2.58l-5.958,2.549l-23.192,9.908l-5.958,2.548l-5.989,2.581l-91.113,38.93c-1.078,0.443 -2,1.199 -2.647,2.169c-0.647,0.971 -0.99,2.112 -0.985,3.278l0,58.427c0.018,-0.158 0.018,-0.319 0,-0.478l0,8.889l0,6.371l0,71.712c-0.015,0.483 0.039,0.966 0.16,1.434l0,8.92l0,6.371l0,72.062c-0.023,1.012 0.228,2.012 0.728,2.892c0.499,0.881 1.227,1.61 2.107,2.11c0.846,0.546 1.82,0.863 2.825,0.919c1.006,0.056 2.008,-0.151 2.91,-0.6l155.72,-78.848c0.978,-0.497 1.795,-1.261 2.359,-2.202c0.563,-0.941 0.85,-2.022 0.827,-3.118l-1.243,-220.933z" clip-rule="evenodd" fill-rule="evenodd"/>
  <path id="svg_6" fill="#1DA1F2" d="m228.849,200.185l-91.528,-39.185l-5.957,-2.549l-5.989,-2.516l-23.256,-9.94l-5.9576,-2.581l-5.9574,-2.548l-16.343,-6.977c-0.7583,-0.312 -1.5696,-0.474 -2.3893,-0.478c-1.1343,0.019 -2.2396,0.362 -3.1858,0.988c-0.8233,0.526 -1.5003,1.251 -1.9681,2.109c-0.4679,0.858 -0.7113,1.82 -0.7079,2.797l-0.6691,221.188c-0.0122,1.094 0.2791,2.171 0.8415,3.11c0.5623,0.939 1.3737,1.704 2.3443,2.21l155.7204,78.848c0.912,0.441 1.919,0.648 2.931,0.604c1.012,-0.045 1.997,-0.34 2.867,-0.859c0.873,-0.527 1.596,-1.269 2.098,-2.157c0.503,-0.887 0.767,-1.889 0.769,-2.909l0,-233.708c0.003,-1.169 -0.345,-2.313 -0.997,-3.284c-0.653,-0.971 -1.582,-1.724 -2.666,-2.163l0,0z" clip-rule="evenodd" fill-rule="evenodd"/>
  <path id="svg_7" fill="white" d="m202.12,353.228c-0.992,0.585 -2.122,0.896 -3.274,0.903c-1.152,0.007 -2.285,-0.291 -3.285,-0.864c-1,-0.572 -1.83,-1.399 -2.407,-2.396c-0.577,-0.998 -0.88,-2.13 -0.878,-3.282l0,-58.044l0,-58.045c0,-1.149 0.302,-2.278 0.875,-3.274c0.573,-0.996 1.397,-1.824 2.39,-2.401c0.994,-0.577 2.121,-0.884 3.27,-0.888c1.149,-0.005 2.279,0.292 3.278,0.86l50.303,28.959l50.303,28.959c0.992,0.577 1.815,1.405 2.386,2.4c0.572,0.995 0.873,2.123 0.873,3.27c0,1.148 -0.301,2.276 -0.873,3.271c-0.571,0.995 -1.394,1.822 -2.386,2.4l-50.239,29.086l-50.336,29.086z" clip-rule="evenodd" fill-rule="evenodd"/>
  <path id="svg_8" fill="white" d="m683.36,184l-69.76,0l0,196l-43.04,0l0,-196l-69.76,0l0,-35.36l182.56,0l0,35.36z"/>
  <path id="svg_9" fill="white" d="m774.717,279.04c0,-5.12 -0.746,-9.92 -2.24,-14.4c-1.386,-4.586 -3.52,-8.586 -6.4,-12c-2.88,-3.413 -6.56,-6.08 -11.04,-8c-4.373,-2.026 -9.493,-3.04 -15.36,-3.04c-11.413,0 -20.426,3.254 -27.04,9.76c-6.506,6.507 -10.666,15.734 -12.48,27.68l74.56,0zm-75.36,23.84c0.64,8.427 2.134,15.734 4.48,21.92c2.347,6.08 5.44,11.147 9.28,15.2c3.84,3.947 8.374,6.934 13.6,8.96c5.334,1.92 11.2,2.88 17.6,2.88c6.4,0 11.894,-0.746 16.48,-2.24c4.694,-1.493 8.747,-3.146 12.16,-4.96c3.52,-1.813 6.56,-3.466 9.12,-4.96c2.667,-1.493 5.227,-2.24 7.68,-2.24c3.307,0 5.76,1.227 7.36,3.68l11.36,14.4c-4.373,5.12 -9.28,9.44 -14.72,12.96c-5.44,3.414 -11.146,6.187 -17.12,8.32c-5.866,2.027 -11.893,3.467 -18.08,4.32c-6.08,0.854 -12,1.28 -17.76,1.28c-11.413,0 -22.026,-1.866 -31.84,-5.6c-9.813,-3.84 -18.346,-9.44 -25.6,-16.8c-7.253,-7.466 -12.96,-16.64 -17.12,-27.52c-4.16,-10.986 -6.24,-23.68 -6.24,-38.08c0,-11.2 1.814,-21.706 5.44,-31.52c3.627,-9.92 8.8,-18.506 15.52,-25.76c6.827,-7.36 15.094,-13.173 24.8,-17.44c9.814,-4.266 20.854,-6.4 33.12,-6.4c10.347,0 19.894,1.654 28.64,4.96c8.747,3.307 16.267,8.16 22.56,14.56c6.294,6.294 11.2,14.08 14.72,23.36c3.627,9.174 5.44,19.68 5.44,31.52c0,5.974 -0.64,10.027 -1.92,12.16c-1.28,2.027 -3.733,3.04 -7.36,3.04l-101.6,0z"/>
  <path id="svg_10" fill="white" d="m926.615,309.92c-11.414,0.534 -21.014,1.547 -28.8,3.04c-7.787,1.387 -14.027,3.2 -18.72,5.44c-4.694,2.24 -8.054,4.854 -10.08,7.84c-2.027,2.987 -3.04,6.24 -3.04,9.76c0,6.934 2.026,11.894 6.08,14.88c4.16,2.987 9.546,4.48 16.16,4.48c8.106,0 15.093,-1.44 20.96,-4.32c5.973,-2.986 11.786,-7.466 17.44,-13.44l0,-27.68zm-90.56,-71.2c18.88,-17.28 41.6,-25.92 68.16,-25.92c9.6,0 18.186,1.6 25.76,4.8c7.573,3.094 13.973,7.467 19.2,13.12c5.226,5.547 9.173,12.214 11.84,20c2.773,7.787 4.16,16.32 4.16,25.6l0,103.68l-17.92,0c-3.734,0 -6.614,-0.533 -8.64,-1.6c-2.027,-1.173 -3.627,-3.466 -4.8,-6.88l-3.52,-11.84c-4.16,3.734 -8.214,7.04 -12.16,9.92c-3.947,2.774 -8.054,5.12 -12.32,7.04c-4.267,1.92 -8.854,3.36 -13.76,4.32c-4.8,1.067 -10.134,1.6 -16,1.6c-6.934,0 -13.334,-0.906 -19.2,-2.72c-5.867,-1.92 -10.934,-4.746 -15.2,-8.48c-4.267,-3.733 -7.574,-8.373 -9.92,-13.92c-2.347,-5.546 -3.52,-12 -3.52,-19.36c0,-4.16 0.693,-8.266 2.08,-12.32c1.386,-4.16 3.626,-8.106 6.72,-11.84c3.2,-3.733 7.306,-7.253 12.32,-10.56c5.013,-3.306 11.146,-6.186 18.4,-8.64c7.36,-2.453 15.893,-4.426 25.6,-5.92c9.706,-1.6 20.8,-2.56 33.28,-2.88l0,-9.6c0,-10.986 -2.347,-19.093 -7.04,-24.32c-4.694,-5.333 -11.467,-8 -20.32,-8c-6.4,0 -11.734,0.747 -16,2.24c-4.16,1.494 -7.84,3.2 -11.04,5.12c-3.2,1.814 -6.134,3.467 -8.8,4.96c-2.56,1.494 -5.44,2.24 -8.64,2.24c-2.774,0 -5.12,-0.693 -7.04,-2.08c-1.92,-1.493 -3.467,-3.2 -4.64,-5.12l-7.04,-12.64z"/>
  <path id="svg_11" fill="white" d="m1119.99,250.56c-1.17,1.494 -2.34,2.667 -3.52,3.52c-1.06,0.854 -2.66,1.28 -4.8,1.28c-2.02,0 -4,-0.586 -5.92,-1.76c-1.92,-1.28 -4.21,-2.666 -6.88,-4.16c-2.66,-1.6 -5.86,-2.986 -9.6,-4.16c-3.62,-1.28 -8.16,-1.92 -13.6,-1.92c-6.93,0 -13.01,1.28 -18.24,3.84c-5.22,2.454 -9.6,6.027 -13.12,10.72c-3.41,4.694 -5.97,10.4 -7.68,17.12c-1.7,6.614 -2.56,14.134 -2.56,22.56c0,8.747 0.91,16.534 2.72,23.36c1.92,6.827 4.64,12.587 8.16,17.28c3.52,4.587 7.79,8.107 12.8,10.56c5.02,2.347 10.67,3.52 16.96,3.52c6.3,0 11.36,-0.746 15.2,-2.24c3.95,-1.6 7.26,-3.306 9.92,-5.12c2.67,-1.92 4.96,-3.626 6.88,-5.12c2.03,-1.6 4.27,-2.4 6.72,-2.4c3.2,0 5.6,1.227 7.2,3.68l11.36,14.4c-4.37,5.12 -9.12,9.44 -14.24,12.96c-5.12,3.414 -10.45,6.187 -16,8.32c-5.44,2.027 -11.09,3.467 -16.96,4.32c-5.76,0.854 -11.52,1.28 -17.28,1.28c-10.13,0 -19.68,-1.866 -28.64,-5.6c-8.96,-3.84 -16.8,-9.386 -23.52,-16.64c-6.72,-7.253 -12.05,-16.106 -15.995,-26.56c-3.84,-10.56 -5.76,-22.56 -5.76,-36c0,-12.053 1.706,-23.2 5.12,-33.44c3.515,-10.346 8.635,-19.253 15.355,-26.72c6.72,-7.573 15.04,-13.493 24.96,-17.76c9.92,-4.266 21.34,-6.4 34.24,-6.4c12.27,0 22.99,1.974 32.16,5.92c9.28,3.947 17.6,9.6 24.96,16.96l-10.4,14.4z"/>
  <path id="svg_12" fill="white" d="m1196.29,233.44c6.4,-5.973 13.44,-10.826 21.12,-14.56c7.68,-3.733 16.69,-5.6 27.04,-5.6c8.96,0 16.91,1.547 23.84,4.64c6.93,2.987 12.69,7.254 17.28,12.8c4.69,5.44 8.21,12 10.56,19.68c2.45,7.574 3.68,15.947 3.68,25.12l0,104.48l-39.52,0l0,-104.48c0,-10.026 -2.29,-17.76 -6.88,-23.2c-4.59,-5.546 -11.57,-8.32 -20.96,-8.32c-6.83,0 -13.23,1.547 -19.2,4.64c-5.97,3.094 -11.63,7.307 -16.96,12.64l0,118.72l-39.52,0l0,-237.76l39.52,0l0,91.2z"/>
  <path id="svg_13" fill="white" d="m1337.39,380l0,-164.16l24.16,0c5.12,0 8.48,2.4 10.08,7.2l2.56,12.16c2.88,-3.2 5.87,-6.133 8.96,-8.8c3.2,-2.666 6.56,-4.96 10.08,-6.88c3.63,-1.92 7.47,-3.413 11.52,-4.48c4.16,-1.173 8.7,-1.76 13.6,-1.76c10.35,0 18.83,2.827 25.44,8.48c6.72,5.547 11.74,12.96 15.04,22.24c2.56,-5.44 5.76,-10.08 9.6,-13.92c3.84,-3.946 8.06,-7.146 12.64,-9.6c4.59,-2.453 9.44,-4.266 14.56,-5.44c5.23,-1.173 10.46,-1.76 15.68,-1.76c9.07,0 17.12,1.387 24.16,4.16c7.04,2.774 12.96,6.827 17.76,12.16c4.8,5.334 8.43,11.84 10.88,19.52c2.56,7.68 3.84,16.48 3.84,26.4l0,104.48l-39.52,0l0,-104.48c0,-10.453 -2.29,-18.293 -6.88,-23.52c-4.58,-5.333 -11.3,-8 -20.16,-8c-4.05,0 -7.84,0.694 -11.36,2.08c-3.41,1.387 -6.45,3.414 -9.12,6.08c-2.56,2.56 -4.58,5.814 -6.08,9.76c-1.49,3.947 -2.24,8.48 -2.24,13.6l0,104.48l-39.68,0l0,-104.48c0,-10.986 -2.24,-18.986 -6.72,-24c-4.37,-5.013 -10.82,-7.52 -19.36,-7.52c-5.76,0 -11.14,1.44 -16.16,4.32c-4.9,2.774 -9.49,6.614 -13.76,11.52l0,120.16l-39.52,0z"/>
  <path id="svg_14" fill="white" d="m1646.48,215.84l0,164.16l-39.68,0l0,-164.16l39.68,0zm5.44,-47.84c0,3.414 -0.69,6.614 -2.08,9.6c-1.39,2.987 -3.25,5.6 -5.6,7.84c-2.24,2.24 -4.91,4.054 -8,5.44c-3.09,1.28 -6.4,1.92 -9.92,1.92c-3.41,0 -6.67,-0.64 -9.76,-1.92c-2.99,-1.386 -5.6,-3.2 -7.84,-5.44c-2.24,-2.24 -4.05,-4.853 -5.44,-7.84c-1.28,-2.986 -1.92,-6.186 -1.92,-9.6c0,-3.52 0.64,-6.826 1.92,-9.92c1.39,-3.093 3.2,-5.76 5.44,-8c2.24,-2.24 4.85,-4 7.84,-5.28c3.09,-1.386 6.35,-2.08 9.76,-2.08c3.52,0 6.83,0.694 9.92,2.08c3.09,1.28 5.76,3.04 8,5.28c2.35,2.24 4.21,4.907 5.6,8c1.39,3.094 2.08,6.4 2.08,9.92z"/>
  <path id="svg_15" fill="white" d="m1723.73,236c3.31,-3.306 6.77,-6.346 10.4,-9.12c3.73,-2.88 7.63,-5.28 11.68,-7.2c4.16,-2.026 8.59,-3.573 13.28,-4.64c4.69,-1.173 9.81,-1.76 15.36,-1.76c8.96,0 16.91,1.547 23.84,4.64c6.93,2.987 12.69,7.254 17.28,12.8c4.69,5.44 8.21,12 10.56,19.68c2.45,7.574 3.68,15.947 3.68,25.12l0,104.48l-39.52,0l0,-104.48c0,-10.026 -2.29,-17.76 -6.88,-23.2c-4.59,-5.546 -11.57,-8.32 -20.96,-8.32c-6.83,0 -13.23,1.547 -19.2,4.64c-5.97,3.094 -11.63,7.307 -16.96,12.64l0,118.72l-39.52,0l0,-164.16l24.16,0c5.12,0 8.48,2.4 10.08,7.2l2.72,12.96z"/>
  <path id="svg_16" fill="white" d="m1919.93,382.56c-14.3,0 -25.28,-4 -32.96,-12c-7.58,-8.106 -11.36,-19.253 -11.36,-33.44l0,-91.68l-16.8,0c-2.14,0 -3.95,-0.693 -5.44,-2.08c-1.5,-1.386 -2.24,-3.466 -2.24,-6.24l0,-15.68l26.4,-4.32l8.32,-44.8c0.53,-2.133 1.54,-3.786 3.04,-4.96c1.49,-1.173 3.41,-1.76 5.76,-1.76l20.48,0l0,51.68l43.84,0l0,28.16l-43.84,0l0,88.96c0,5.12 1.22,9.12 3.68,12c2.56,2.88 6.02,4.32 10.4,4.32c2.45,0 4.48,-0.266 6.08,-0.8c1.7,-0.64 3.14,-1.28 4.32,-1.92c1.28,-0.64 2.4,-1.226 3.36,-1.76c0.96,-0.64 1.92,-0.96 2.88,-0.96c1.17,0 2.13,0.32 2.88,0.96c0.74,0.534 1.54,1.387 2.4,2.56l11.84,19.2c-5.76,4.8 -12.38,8.427 -19.84,10.88c-7.47,2.454 -15.2,3.68 -23.2,3.68z"/>
  <text font-weight="bold" xml:space="preserve" text-anchor="start" font-family="'Archivo'" font-size="180" id="svg_17" y="387.60603" x="2050" stroke-width="0" fill="#1DA1F2">DOCS</text>
 </g>
</svg>