<svg width="5110" height="1698" viewBox="0 0 5110 1698" fill="none" xmlns="http://www.w3.org/2000/svg">
<path d="M1531.1 1529.77C1539.59 1540.7 1548.84 1548.43 1558.84 1552.95C1569.03 1557.29 1580.07 1559.46 1591.95 1559.46C1615.92 1559.46 1634.6 1550.79 1648 1533.44C1661.39 1516.1 1668.09 1489.24 1668.09 1452.86C1668.09 1419.69 1662.24 1395.47 1650.54 1380.2C1639.03 1364.93 1622.52 1357.3 1601.01 1357.3C1586.1 1357.3 1573.08 1360.69 1561.95 1367.47C1551.01 1374.07 1540.72 1383.59 1531.1 1396.03V1529.77ZM1531.1 1351.92C1542.99 1338.92 1556.29 1328.55 1571.01 1320.82C1585.73 1313.09 1602.52 1309.23 1621.39 1309.23C1638.18 1309.23 1653.28 1312.53 1666.68 1319.12C1680.26 1325.53 1691.77 1334.86 1701.21 1347.12C1710.64 1359.37 1717.91 1374.26 1723 1391.79C1728.1 1409.13 1730.64 1428.73 1730.64 1450.6C1730.64 1473.97 1727.72 1495.27 1721.87 1514.5C1716.21 1533.54 1708 1549.94 1697.24 1563.7C1686.49 1577.27 1673.47 1587.82 1658.19 1595.36C1642.9 1602.72 1625.82 1606.39 1606.96 1606.39C1597.71 1606.39 1589.31 1605.45 1581.76 1603.56C1574.22 1601.87 1567.24 1599.32 1560.82 1595.93C1554.4 1592.54 1548.46 1588.48 1542.99 1583.77C1537.7 1579.06 1532.61 1573.69 1527.7 1567.66L1525.16 1589.99C1524.21 1594.33 1522.52 1597.44 1520.06 1599.32C1517.61 1601.21 1514.21 1602.15 1509.87 1602.15H1470.25V1183.69H1531.1V1351.92Z" fill="#F2F4F8"/>
<path d="M2038.18 1313.75L1879.12 1684.15C1877.04 1688.48 1874.49 1691.87 1871.47 1694.32C1868.64 1696.77 1864.21 1698 1858.17 1698H1813.17L1866.38 1582.64L1748.63 1313.75H1801.56C1806.66 1313.75 1810.53 1314.98 1813.17 1317.43C1816 1319.69 1818.07 1322.42 1819.39 1325.63L1888.17 1489.34C1889.87 1494.05 1891.38 1498.76 1892.7 1503.47C1894.21 1508 1895.63 1512.71 1896.95 1517.61C1898.46 1512.71 1899.97 1507.9 1901.48 1503.19C1902.99 1498.48 1904.68 1493.77 1906.57 1489.05L1972.52 1325.63C1973.84 1322.24 1976.01 1319.41 1979.03 1317.15C1982.24 1314.88 1985.73 1313.75 1989.5 1313.75H2038.18Z" fill="#F2F4F8"/>
<path fill-rule="evenodd" clip-rule="evenodd" d="M2708.99 1176.05C2708.95 1174.6 2708.57 1173.19 2707.86 1171.93C2707.16 1170.68 2706.16 1169.61 2704.95 1168.82C2703.74 1168.03 2702.36 1167.55 2700.92 1167.42C2699.48 1167.28 2698.03 1167.5 2696.7 1168.05L2574.28 1220.35C2572.7 1221.03 2571.34 1222.16 2570.39 1223.59C2569.44 1225.03 2568.92 1226.72 2568.92 1228.44V1247.25C2568.92 1248.43 2569.21 1249.59 2569.77 1250.63C2570.33 1251.67 2571.13 1252.56 2572.12 1253.21C2573.1 1253.86 2574.23 1254.26 2575.4 1254.37C2576.58 1254.48 2577.76 1254.3 2578.85 1253.84L2702.73 1201.11C2704.68 1200.29 2706.34 1198.91 2707.5 1197.14C2708.67 1195.38 2709.28 1193.3 2709.27 1191.19L2708.99 1176.05Z" fill="#1DA1F2"/>
<path fill-rule="evenodd" clip-rule="evenodd" d="M2546.3 1220.36L2423.46 1167.96C2422.38 1167.46 2421.21 1167.18 2420.02 1167.16C2418.33 1167.17 2416.69 1167.7 2415.31 1168.67C2414.07 1169.43 2413.05 1170.51 2412.35 1171.78C2411.65 1173.06 2411.29 1174.5 2411.31 1175.96V1190.07C2411.31 1192.39 2411.99 1194.66 2413.27 1196.6C2414.55 1198.54 2416.37 1200.07 2418.51 1200.98L2542.3 1253.8C2543.33 1254.22 2544.45 1254.38 2545.56 1254.27C2546.67 1254.16 2547.74 1253.78 2548.67 1253.17C2549.6 1252.55 2550.36 1251.71 2550.89 1250.73C2551.42 1249.75 2551.7 1248.66 2551.71 1247.54V1228.45C2551.71 1226.72 2551.19 1225.02 2550.23 1223.59C2549.26 1222.15 2547.9 1221.02 2546.3 1220.36Z" fill="#1DA1F2"/>
<path fill-rule="evenodd" clip-rule="evenodd" d="M2574.37 1274.96C2572.8 1275.62 2571.45 1276.73 2570.51 1278.15C2569.57 1279.58 2569.08 1281.25 2569.1 1282.95V1303.65C2569.14 1304.38 2569.35 1305.1 2569.71 1305.74C2570.07 1306.38 2570.58 1306.93 2571.2 1307.33C2571.81 1307.74 2572.51 1308 2573.24 1308.08C2573.97 1308.17 2574.72 1308.09 2575.41 1307.84L2709.22 1250.64L2718.07 1246.93L2726.88 1243.16L2754.18 1231.26C2756.25 1230.38 2758.02 1228.9 2759.25 1227.02C2760.48 1225.14 2761.13 1222.93 2761.1 1220.68V1208.45C2761.12 1207.01 2760.78 1205.59 2760.11 1204.32C2759.43 1203.04 2758.45 1201.96 2757.24 1201.16C2755.85 1200.22 2754.22 1199.7 2752.54 1199.66C2751.31 1199.66 2750.11 1199.93 2749 1200.46L2726.78 1209.86L2717.98 1213.58L2574.37 1274.96Z" fill="#1DA1F2"/>
<path fill-rule="evenodd" clip-rule="evenodd" d="M2546.33 1274.96L2411.2 1217.16L2402.4 1213.49L2393.59 1209.68L2371.27 1200.27C2370.18 1199.83 2369.02 1199.59 2367.84 1199.57C2366.69 1199.55 2365.55 1199.77 2364.49 1200.2C2363.42 1200.63 2362.45 1201.26 2361.63 1202.07C2360.82 1202.87 2360.16 1203.83 2359.72 1204.88C2359.27 1205.94 2359.04 1207.07 2359.03 1208.22V1221.86C2359.02 1223.71 2359.55 1225.52 2360.57 1227.07C2361.58 1228.62 2363.03 1229.83 2364.73 1230.56L2393.45 1242.79L2402.25 1246.6L2411.11 1250.36L2544.26 1307.18C2545.05 1307.51 2545.92 1307.65 2546.78 1307.58C2547.64 1307.51 2548.47 1307.23 2549.21 1306.77C2549.94 1306.31 2550.54 1305.67 2550.98 1304.93C2551.41 1304.18 2551.66 1303.34 2551.7 1302.48V1283.01C2551.71 1281.28 2551.21 1279.59 2550.25 1278.16C2549.29 1276.73 2547.93 1275.61 2546.33 1274.96Z" fill="#1DA1F2"/>
<path fill-rule="evenodd" clip-rule="evenodd" d="M2815.16 1237.8C2815.18 1236.34 2814.83 1234.9 2814.14 1233.62C2813.45 1232.33 2812.43 1231.25 2811.2 1230.47C2809.81 1229.52 2808.18 1228.99 2806.49 1228.96C2805.3 1228.98 2804.13 1229.26 2803.05 1229.76L2778.81 1240.06L2770 1243.87L2718.12 1266.02L2709.27 1269.83L2574.61 1327.31C2573.01 1327.96 2571.65 1329.08 2570.69 1330.51C2569.74 1331.94 2569.23 1333.63 2569.24 1335.35V1421.61C2569.27 1421.38 2569.27 1421.14 2569.24 1420.91V1549.31C2569.22 1550.02 2569.3 1550.73 2569.48 1551.42V1680.39C2569.44 1681.89 2569.81 1683.36 2570.55 1684.66C2571.29 1685.96 2572.36 1687.04 2573.67 1687.78C2574.92 1688.58 2576.35 1689.05 2577.84 1689.13C2579.33 1689.22 2580.81 1688.91 2582.14 1688.25L2812.28 1571.84C2813.73 1571.1 2814.94 1569.98 2815.77 1568.59C2816.6 1567.2 2817.03 1565.6 2816.99 1563.98L2815.16 1237.8Z" fill="#1DA1F2"/>
<path fill-rule="evenodd" clip-rule="evenodd" d="M2546.31 1327.3L2402.23 1265.69L2393.38 1261.97L2359.01 1247.3L2350.2 1243.49L2317.25 1229.43C2316.12 1228.97 2314.93 1228.73 2313.71 1228.72C2312.04 1228.75 2310.4 1229.26 2309.01 1230.18C2307.79 1230.96 2306.79 1232.03 2306.1 1233.29C2305.41 1234.56 2305.05 1235.98 2305.05 1237.42L2304.06 1563.98C2304.04 1565.59 2304.47 1567.18 2305.31 1568.57C2306.14 1569.96 2307.34 1571.09 2308.77 1571.83L2538.91 1688.24C2540.26 1688.89 2541.75 1689.2 2543.25 1689.13C2544.74 1689.07 2546.2 1688.63 2547.48 1687.87C2548.77 1687.09 2549.84 1685.99 2550.58 1684.68C2551.33 1683.37 2551.72 1681.89 2551.72 1680.39V1335.35C2551.72 1333.62 2551.21 1331.93 2550.25 1330.5C2549.28 1329.06 2547.91 1327.95 2546.31 1327.3Z" fill="#1DA1F2"/>
<path fill-rule="evenodd" clip-rule="evenodd" d="M2506.81 1553.26C2505.34 1554.12 2503.67 1554.58 2501.97 1554.59C2500.27 1554.6 2498.59 1554.16 2497.11 1553.31C2495.64 1552.47 2494.41 1551.25 2493.56 1549.77C2492.7 1548.3 2492.26 1546.63 2492.26 1544.93V1373.54C2492.26 1371.84 2492.7 1370.18 2493.55 1368.71C2494.4 1367.24 2495.62 1366.01 2497.08 1365.16C2498.55 1364.31 2500.22 1363.86 2501.92 1363.85C2503.61 1363.84 2505.28 1364.28 2506.76 1365.12L2655.45 1450.63C2656.91 1451.48 2658.13 1452.7 2658.98 1454.17C2659.82 1455.64 2660.27 1457.31 2660.27 1459C2660.27 1460.69 2659.82 1462.36 2658.98 1463.83C2658.13 1465.3 2656.91 1466.52 2655.45 1467.37L2506.81 1553.26Z" fill="white"/>
<path d="M3218.04 1303.42H3114.94V1592.79H3051.33V1303.42H2948.23V1251.21H3218.04V1303.42Z" fill="#F2F4F8"/>
<path d="M3353.06 1443.73C3353.06 1436.17 3351.96 1429.09 3349.75 1422.47C3347.7 1415.7 3344.55 1409.8 3340.29 1404.76C3336.04 1399.72 3330.6 1395.78 3323.98 1392.95C3317.51 1389.95 3309.95 1388.46 3301.27 1388.46C3284.41 1388.46 3271.09 1393.26 3261.31 1402.87C3251.7 1412.47 3245.55 1426.1 3242.87 1443.73H3353.06ZM3241.69 1478.93C3242.63 1491.37 3244.84 1502.16 3248.31 1511.29C3251.77 1520.27 3256.35 1527.75 3262.02 1533.73C3267.7 1539.56 3274.4 1543.97 3282.12 1546.96C3290 1549.8 3298.67 1551.21 3308.13 1551.21C3317.59 1551.21 3325.71 1550.11 3332.49 1547.91C3339.43 1545.7 3345.42 1543.26 3350.46 1540.58C3355.66 1537.91 3360.16 1535.47 3363.94 1533.26C3367.88 1531.06 3371.66 1529.95 3375.29 1529.95C3380.18 1529.95 3383.8 1531.76 3386.17 1535.39L3402.96 1556.65C3396.49 1564.21 3389.24 1570.58 3381.2 1575.78C3373.16 1580.82 3364.73 1584.91 3355.9 1588.06C3347.23 1591.06 3338.32 1593.18 3329.18 1594.44C3320.19 1595.7 3311.44 1596.33 3302.93 1596.33C3286.06 1596.33 3270.38 1593.58 3255.87 1588.06C3241.37 1582.39 3228.76 1574.13 3218.04 1563.26C3207.32 1552.24 3198.88 1538.69 3192.74 1522.63C3186.59 1506.41 3183.51 1487.67 3183.51 1466.41C3183.51 1449.88 3186.19 1434.36 3191.55 1419.88C3196.91 1405.23 3204.56 1392.55 3214.49 1381.84C3224.58 1370.98 3236.8 1362.4 3251.14 1356.1C3265.65 1349.8 3281.96 1346.65 3300.09 1346.65C3315.38 1346.65 3329.49 1349.09 3342.42 1353.97C3355.35 1358.85 3366.46 1366.02 3375.76 1375.47C3385.06 1384.76 3392.32 1396.25 3397.52 1409.95C3402.88 1423.5 3405.56 1439.01 3405.56 1456.49C3405.56 1465.31 3404.61 1471.29 3402.72 1474.44C3400.83 1477.43 3397.2 1478.93 3391.84 1478.93H3241.69Z" fill="#F2F4F8"/>
<path d="M3577.55 1489.32C3560.69 1490.11 3546.5 1491.61 3534.99 1493.81C3523.48 1495.86 3514.26 1498.54 3507.32 1501.84C3500.39 1505.15 3495.42 1509.01 3492.43 1513.42C3489.43 1517.83 3487.93 1522.63 3487.93 1527.83C3487.93 1538.06 3490.93 1545.39 3496.92 1549.8C3503.07 1554.21 3511.03 1556.41 3520.8 1556.41C3532.78 1556.41 3543.11 1554.28 3551.78 1550.03C3560.61 1545.62 3569.2 1539.01 3577.55 1530.19V1489.32ZM3443.71 1384.21C3471.62 1358.69 3505.2 1345.94 3544.45 1345.94C3558.64 1345.94 3571.33 1348.3 3582.52 1353.03C3593.71 1357.59 3603.17 1364.05 3610.9 1372.4C3618.62 1380.58 3624.45 1390.43 3628.4 1401.92C3632.49 1413.42 3634.54 1426.02 3634.54 1439.72V1592.79H3608.06C3602.54 1592.79 3598.28 1592 3595.29 1590.43C3592.29 1588.69 3589.93 1585.31 3588.2 1580.27L3582.99 1562.79C3576.84 1568.3 3570.85 1573.18 3565.02 1577.43C3559.19 1581.53 3553.12 1584.99 3546.81 1587.83C3540.51 1590.66 3533.73 1592.79 3526.48 1594.21C3519.38 1595.78 3511.5 1596.57 3502.83 1596.57C3492.58 1596.57 3483.12 1595.23 3474.45 1592.55C3465.78 1589.72 3458.3 1585.54 3451.99 1580.03C3445.68 1574.52 3440.8 1567.67 3437.33 1559.48C3433.86 1551.29 3432.13 1541.76 3432.13 1530.9C3432.13 1524.76 3433.15 1518.69 3435.2 1512.71C3437.25 1506.57 3440.56 1500.74 3445.13 1495.23C3449.86 1489.72 3455.93 1484.52 3463.34 1479.64C3470.75 1474.76 3479.81 1470.51 3490.53 1466.88C3501.41 1463.26 3514.02 1460.35 3528.37 1458.14C3542.72 1455.78 3559.11 1454.36 3577.55 1453.89V1439.72C3577.55 1423.5 3574.09 1411.53 3567.15 1403.81C3560.21 1395.94 3550.2 1392 3537.12 1392C3527.66 1392 3519.78 1393.1 3513.47 1395.31C3507.32 1397.51 3501.88 1400.03 3497.16 1402.87C3492.43 1405.54 3488.09 1407.99 3484.15 1410.19C3480.37 1412.4 3476.11 1413.5 3471.38 1413.5C3467.28 1413.5 3463.81 1412.47 3460.98 1410.43C3458.14 1408.22 3455.85 1405.7 3454.12 1402.87L3443.71 1384.21Z" fill="#F2F4F8"/>
<path d="M3863.36 1401.69C3861.62 1403.89 3859.89 1405.62 3858.15 1406.88C3856.58 1408.14 3854.21 1408.77 3851.06 1408.77C3848.06 1408.77 3845.15 1407.91 3842.31 1406.17C3839.47 1404.29 3836.08 1402.24 3832.14 1400.03C3828.2 1397.67 3823.47 1395.62 3817.95 1393.89C3812.59 1392 3805.89 1391.06 3797.85 1391.06C3787.61 1391.06 3778.62 1392.95 3770.9 1396.73C3763.17 1400.35 3756.71 1405.62 3751.51 1412.55C3746.46 1419.48 3742.68 1427.91 3740.16 1437.83C3737.63 1447.59 3736.37 1458.69 3736.37 1471.14C3736.37 1484.05 3737.71 1495.54 3740.39 1505.62C3743.23 1515.7 3747.25 1524.21 3752.45 1531.13C3757.65 1537.91 3763.96 1543.1 3771.37 1546.73C3778.78 1550.19 3787.13 1551.92 3796.44 1551.92C3805.74 1551.92 3813.22 1550.82 3818.9 1548.62C3824.73 1546.25 3829.62 1543.73 3833.56 1541.06C3837.5 1538.22 3840.89 1535.7 3843.73 1533.5C3846.72 1531.13 3850.03 1529.95 3853.66 1529.95C3858.39 1529.95 3861.94 1531.76 3864.3 1535.39L3881.09 1556.65C3874.63 1564.21 3867.61 1570.58 3860.05 1575.78C3852.48 1580.82 3844.6 1584.91 3836.4 1588.06C3828.36 1591.06 3820 1593.18 3811.33 1594.44C3802.82 1595.7 3794.31 1596.33 3785.79 1596.33C3770.82 1596.33 3756.71 1593.58 3743.47 1588.06C3730.22 1582.39 3718.64 1574.21 3708.71 1563.5C3698.77 1552.79 3690.89 1539.72 3685.06 1524.28C3679.38 1508.69 3676.55 1490.98 3676.55 1471.14C3676.55 1453.34 3679.07 1436.88 3684.11 1421.77C3689.32 1406.49 3696.88 1393.34 3706.81 1382.32C3716.75 1371.14 3729.04 1362.4 3743.7 1356.1C3758.36 1349.8 3775.23 1346.65 3794.31 1346.65C3812.44 1346.65 3828.28 1349.56 3841.84 1355.39C3855.55 1361.21 3867.85 1369.56 3878.73 1380.43L3863.36 1401.69Z" fill="#F2F4F8"/>
<path d="M3976.11 1376.41C3985.57 1367.59 3995.98 1360.43 4007.33 1354.92C4018.68 1349.4 4032 1346.65 4047.29 1346.65C4060.53 1346.65 4072.28 1348.93 4082.52 1353.5C4092.77 1357.91 4101.28 1364.21 4108.06 1372.4C4115 1380.43 4120.2 1390.11 4123.67 1401.45C4127.3 1412.63 4129.11 1424.99 4129.11 1438.54V1592.79H4070.7V1438.54C4070.7 1423.73 4067.31 1412.32 4060.53 1404.29C4053.75 1396.1 4043.43 1392 4029.56 1392C4019.47 1392 4010.01 1394.29 4001.18 1398.85C3992.35 1403.42 3984 1409.64 3976.11 1417.51V1592.79H3917.71V1241.77H3976.11V1376.41Z" fill="#F2F4F8"/>
<path d="M4184.66 1592.79V1350.43H4220.36C4227.93 1350.43 4232.9 1353.97 4235.26 1361.06L4239.04 1379.01C4243.3 1374.29 4247.71 1369.95 4252.29 1366.02C4257.02 1362.08 4261.98 1358.69 4267.18 1355.86C4272.54 1353.03 4278.22 1350.82 4284.21 1349.25C4290.36 1347.51 4297.06 1346.65 4304.31 1346.65C4319.6 1346.65 4332.13 1350.82 4341.91 1359.17C4351.84 1367.36 4359.25 1378.3 4364.14 1392C4367.92 1383.97 4372.65 1377.12 4378.32 1371.45C4384 1365.62 4390.23 1360.9 4397 1357.28C4403.78 1353.66 4410.96 1350.98 4418.52 1349.25C4426.25 1347.51 4433.97 1346.65 4441.7 1346.65C4455.1 1346.65 4467 1348.69 4477.4 1352.79C4487.81 1356.88 4496.56 1362.87 4503.65 1370.74C4510.75 1378.62 4516.11 1388.22 4519.73 1399.56C4523.52 1410.9 4525.41 1423.89 4525.41 1438.54V1592.79H4467V1438.54C4467 1423.1 4463.61 1411.53 4456.83 1403.81C4450.05 1395.94 4440.12 1392 4427.04 1392C4421.05 1392 4415.45 1393.03 4410.25 1395.07C4405.2 1397.12 4400.71 1400.11 4396.77 1404.05C4392.98 1407.83 4389.99 1412.63 4387.78 1418.46C4385.58 1424.29 4384.47 1430.98 4384.47 1438.54V1592.79H4325.83V1438.54C4325.83 1422.32 4322.52 1410.51 4315.9 1403.1C4309.43 1395.7 4299.9 1392 4287.28 1392C4278.77 1392 4270.81 1394.13 4263.4 1398.38C4256.15 1402.47 4249.37 1408.14 4243.06 1415.39V1592.79H4184.66Z" fill="#F2F4F8"/>
<path d="M4641.46 1350.43V1592.79H4582.82V1350.43H4641.46ZM4649.5 1279.8C4649.5 1284.84 4648.48 1289.56 4646.43 1293.97C4644.38 1298.38 4641.62 1302.24 4638.15 1305.55C4634.84 1308.85 4630.9 1311.53 4626.33 1313.58C4621.75 1315.47 4616.87 1316.41 4611.67 1316.41C4606.62 1316.41 4601.81 1315.47 4597.24 1313.58C4592.83 1311.53 4588.96 1308.85 4585.65 1305.55C4582.34 1302.24 4579.66 1298.38 4577.61 1293.97C4575.72 1289.56 4574.78 1284.84 4574.78 1279.8C4574.78 1274.6 4575.72 1269.72 4577.61 1265.15C4579.66 1260.59 4582.34 1256.65 4585.65 1253.34C4588.96 1250.03 4592.83 1247.44 4597.24 1245.55C4601.81 1243.5 4606.62 1242.47 4611.67 1242.47C4616.87 1242.47 4621.75 1243.5 4626.33 1245.55C4630.9 1247.44 4634.84 1250.03 4638.15 1253.34C4641.62 1256.65 4644.38 1260.59 4646.43 1265.15C4648.48 1269.72 4649.5 1274.6 4649.5 1279.8Z" fill="#F2F4F8"/>
<path d="M4755.63 1380.19C4760.52 1375.31 4765.64 1370.82 4771 1366.73C4776.52 1362.47 4782.27 1358.93 4788.26 1356.1C4794.41 1353.1 4800.95 1350.82 4807.89 1349.25C4814.83 1347.51 4822.39 1346.65 4830.59 1346.65C4843.83 1346.65 4855.58 1348.93 4865.82 1353.5C4876.07 1357.91 4884.58 1364.21 4891.36 1372.4C4898.3 1380.43 4903.5 1390.11 4906.97 1401.45C4910.6 1412.63 4912.41 1424.99 4912.41 1438.54V1592.79H4854V1438.54C4854 1423.73 4850.61 1412.32 4843.83 1404.29C4837.05 1396.1 4826.73 1392 4812.86 1392C4802.77 1392 4793.31 1394.29 4784.48 1398.85C4775.65 1403.42 4767.3 1409.64 4759.41 1417.51V1592.79H4701.01V1350.43H4736.71C4744.28 1350.43 4749.25 1353.97 4751.61 1361.06L4755.63 1380.19Z" fill="#F2F4F8"/>
<path d="M5045.6 1596.57C5024.47 1596.57 5008.23 1590.66 4996.88 1578.85C4985.69 1566.88 4980.09 1550.43 4980.09 1529.48V1394.13H4955.27C4952.11 1394.13 4949.43 1393.1 4947.23 1391.06C4945.02 1389.01 4943.91 1385.94 4943.91 1381.84V1358.69L4982.93 1352.32L4995.23 1286.18C4996.02 1283.03 4997.51 1280.58 4999.72 1278.85C5001.93 1277.12 5004.77 1276.25 5008.23 1276.25H5038.5V1352.55H5103.29V1394.13H5038.5V1525.47C5038.5 1533.02 5040.31 1538.93 5043.94 1543.18C5047.72 1547.43 5052.85 1549.56 5059.31 1549.56C5062.94 1549.56 5065.93 1549.17 5068.3 1548.38C5070.82 1547.43 5072.95 1546.49 5074.68 1545.54C5076.57 1544.6 5078.23 1543.73 5079.65 1542.95C5081.07 1542 5082.48 1541.53 5083.9 1541.53C5085.64 1541.53 5087.06 1542 5088.16 1542.95C5089.26 1543.73 5090.45 1544.99 5091.71 1546.73L5109.21 1575.07C5100.69 1582.16 5090.92 1587.51 5079.88 1591.13C5068.85 1594.76 5057.42 1596.57 5045.6 1596.57Z" fill="#F2F4F8"/>
<path d="M596.213 136.238H368.388V775.672H227.826V136.238H0V20.8794H596.213V136.238Z" fill="#F2F4F8"/>
<path d="M894.573 446.298C894.573 429.595 892.135 413.935 887.258 399.32C882.729 384.356 875.762 371.306 866.356 360.171C856.951 349.035 844.932 340.335 830.301 334.071C816.018 327.459 799.297 324.154 780.138 324.154C742.864 324.154 713.427 334.767 691.829 355.995C670.579 377.222 656.993 407.323 651.071 446.298H894.573ZM648.459 524.074C650.549 551.566 655.426 575.403 663.09 595.587C670.754 615.422 680.856 631.952 693.397 645.175C705.938 658.051 720.743 667.795 737.812 674.406C755.23 680.67 774.39 683.802 795.291 683.802C816.193 683.802 834.133 681.366 849.112 676.495C864.44 671.623 877.678 666.229 888.825 660.313C900.321 654.397 910.249 649.003 918.61 644.131C927.319 639.259 935.679 636.823 943.691 636.823C954.491 636.823 962.503 640.825 967.728 648.829L1004.83 695.808C990.545 712.511 974.521 726.605 956.755 738.089C938.989 749.224 920.352 758.272 900.844 765.232C881.684 771.844 862.002 776.542 841.797 779.326C821.941 782.11 802.607 783.502 783.796 783.502C746.521 783.502 711.86 777.412 679.811 765.232C647.762 752.705 619.893 734.435 596.205 710.424C572.517 686.064 553.88 656.137 540.294 620.642C526.708 584.799 519.915 543.388 519.915 496.409C519.915 459.87 525.837 425.593 537.681 393.578C549.525 361.215 566.421 333.201 588.367 309.538C610.662 285.527 637.66 266.561 669.36 252.641C701.409 238.722 737.464 231.762 777.525 231.762C811.316 231.762 842.494 237.156 871.059 247.944C899.624 258.731 924.183 274.565 944.737 295.444C965.29 315.976 981.314 341.379 992.81 371.654C1004.65 401.582 1010.58 435.859 1010.58 474.486C1010.58 493.973 1008.49 507.197 1004.31 514.157C1000.13 520.768 992.113 524.074 980.269 524.074H648.459Z" fill="#F2F4F8"/>
<path d="M1390.65 547.042C1353.37 548.782 1322.02 552.088 1296.59 556.96C1271.16 561.483 1250.78 567.399 1235.45 574.707C1220.13 582.015 1209.15 590.541 1202.53 600.284C1195.92 610.028 1192.61 620.642 1192.61 632.126C1192.61 654.745 1199.23 670.927 1212.46 680.67C1226.05 690.414 1243.64 695.286 1265.24 695.286C1291.71 695.286 1314.53 690.588 1333.69 681.192C1353.2 671.449 1372.18 656.833 1390.65 637.345V547.042ZM1094.89 314.758C1156.55 258.383 1230.75 230.196 1317.49 230.196C1348.84 230.196 1376.89 235.416 1401.62 245.856C1426.35 255.947 1447.26 270.215 1464.32 288.659C1481.39 306.754 1494.28 328.503 1502.99 353.907C1512.05 379.31 1516.58 407.149 1516.58 437.425V775.672H1458.05C1445.86 775.672 1436.46 773.932 1429.84 770.452C1423.22 766.624 1417.99 759.142 1414.16 748.007L1402.67 709.38C1389.08 721.559 1375.84 732.347 1362.95 741.743C1350.06 750.79 1336.65 758.446 1322.72 764.71C1308.78 770.974 1293.8 775.672 1277.78 778.804C1262.1 782.284 1244.69 784.024 1225.53 784.024C1202.88 784.024 1181.98 781.066 1162.82 775.15C1143.66 768.886 1127.12 759.664 1113.18 747.485C1099.25 735.305 1088.45 720.167 1080.78 702.072C1073.12 683.976 1069.29 662.923 1069.29 638.911C1069.29 625.34 1071.55 611.942 1076.08 598.718C1080.61 585.147 1087.92 572.271 1098.03 560.091C1108.48 547.912 1121.89 536.428 1138.26 525.64C1154.64 514.853 1174.67 505.457 1198.35 497.453C1222.39 489.449 1250.26 483.011 1281.96 478.14C1313.66 472.92 1349.89 469.788 1390.65 468.744V437.425C1390.65 401.582 1382.98 375.134 1367.66 358.083C1352.33 340.683 1330.21 331.983 1301.29 331.983C1280.39 331.983 1262.97 334.419 1249.04 339.291C1235.45 344.163 1223.44 349.731 1212.99 355.995C1202.53 361.911 1192.95 367.304 1184.25 372.176C1175.89 377.048 1166.48 379.484 1156.03 379.484C1146.97 379.484 1139.31 377.222 1133.04 372.698C1126.77 367.826 1121.72 362.259 1117.88 355.995L1094.89 314.758Z" fill="#F2F4F8"/>
<path d="M2022.2 353.385C2018.37 358.257 2014.53 362.085 2010.7 364.869C2007.22 367.652 2001.99 369.044 1995.03 369.044C1988.41 369.044 1981.96 367.13 1975.69 363.303C1969.42 359.127 1961.93 354.603 1953.22 349.731C1944.51 344.511 1934.06 339.987 1921.87 336.159C1910.03 331.983 1895.22 329.895 1877.45 329.895C1854.81 329.895 1834.96 334.071 1817.89 342.423C1800.82 350.427 1786.53 362.085 1775.04 377.396C1763.89 392.708 1755.53 411.325 1749.96 433.249C1744.38 454.824 1741.6 479.358 1741.6 506.849C1741.6 535.384 1744.56 560.787 1750.48 583.059C1756.75 605.33 1765.63 624.122 1777.13 639.433C1788.62 654.397 1802.56 665.881 1818.93 673.885C1835.3 681.54 1853.77 685.368 1874.32 685.368C1894.87 685.368 1911.42 682.932 1923.96 678.06C1936.85 672.841 1947.65 667.273 1956.36 661.357C1965.07 655.093 1972.56 649.525 1978.83 644.653C1985.45 639.433 1992.76 636.823 2000.77 636.823C2011.22 636.823 2019.06 640.825 2024.29 648.829L2061.39 695.808C2047.1 712.511 2031.6 726.605 2014.88 738.089C1998.16 749.224 1980.74 758.272 1962.63 765.232C1944.86 771.844 1926.4 776.542 1907.24 779.326C1888.43 782.11 1869.62 783.502 1850.81 783.502C1817.71 783.502 1786.53 777.412 1757.27 765.232C1728.01 752.705 1702.41 734.609 1680.46 710.945C1658.51 687.282 1641.09 658.399 1628.21 624.296C1615.66 589.845 1609.39 550.696 1609.39 506.849C1609.39 467.526 1614.97 431.161 1626.11 397.754C1637.61 363.999 1654.33 334.941 1676.28 310.582C1698.22 285.875 1725.4 266.561 1757.79 252.641C1790.19 238.722 1827.47 231.762 1869.62 231.762C1909.68 231.762 1944.69 238.2 1974.65 251.076C2004.95 263.951 2032.13 282.395 2056.16 306.406L2022.2 353.385Z" fill="#F2F4F8"/>
<path d="M2271.36 297.532C2292.27 278.045 2315.26 262.211 2340.34 250.031C2365.42 237.852 2394.86 231.762 2428.65 231.762C2457.91 231.762 2483.86 236.808 2506.51 246.9C2529.15 256.643 2547.96 270.563 2562.94 288.659C2578.27 306.406 2589.76 327.807 2597.43 352.863C2605.44 377.57 2609.45 404.887 2609.45 434.815V775.672H2480.38V434.815C2480.38 402.104 2472.89 376.874 2457.91 359.127C2442.93 341.031 2420.11 331.983 2389.46 331.983C2367.16 331.983 2346.26 337.029 2326.75 347.121C2307.25 357.213 2288.78 370.958 2271.36 388.358V775.672H2142.3V0H2271.36V297.532Z" fill="#F2F4F8"/>
<path d="M3059.3 344.511C3055.82 350.079 3052.16 354.081 3048.33 356.517C3044.49 358.605 3039.62 359.649 3033.7 359.649C3027.43 359.649 3020.63 357.909 3013.32 354.429C3006.35 350.949 2998.16 347.121 2988.76 342.945C2979.35 338.421 2968.55 334.419 2956.36 330.939C2944.52 327.459 2930.41 325.72 2914.03 325.72C2888.6 325.72 2868.57 331.113 2853.94 341.901C2839.66 352.689 2832.52 366.782 2832.52 384.182C2832.52 395.666 2836.18 405.409 2843.49 413.413C2851.16 421.069 2861.08 427.855 2873.28 433.771C2885.82 439.687 2899.93 445.08 2915.6 449.952C2931.28 454.476 2947.13 459.522 2963.15 465.09C2979.53 470.658 2995.55 477.096 3011.23 484.403C3026.9 491.363 3040.84 500.411 3053.03 511.547C3065.57 522.334 3075.5 535.384 3082.81 550.696C3090.48 566.007 3094.31 584.451 3094.31 606.026C3094.31 631.778 3089.61 655.615 3080.2 677.538C3071.14 699.114 3057.56 717.905 3039.44 733.913C3021.33 749.572 2998.86 761.926 2972.04 770.974C2945.56 779.674 2914.91 784.024 2880.07 784.024C2861.61 784.024 2843.49 782.284 2825.73 778.804C2808.31 775.672 2791.41 771.148 2775.04 765.232C2759.02 759.316 2744.04 752.357 2730.1 744.353C2716.52 736.349 2704.5 727.649 2694.05 718.253L2723.83 669.187C2727.66 663.271 2732.19 658.747 2737.42 655.615C2742.64 652.483 2749.26 650.917 2757.27 650.917C2765.29 650.917 2772.78 653.179 2779.74 657.703C2787.06 662.227 2795.42 667.099 2804.82 672.319C2814.23 677.538 2825.2 682.41 2837.74 686.934C2850.63 691.458 2866.83 693.72 2886.34 693.72C2901.67 693.72 2914.73 691.98 2925.53 688.5C2936.68 684.672 2945.74 679.8 2952.7 673.885C2960.02 667.969 2965.24 661.183 2968.38 653.527C2971.86 645.523 2973.6 637.346 2973.6 628.994C2973.6 616.466 2969.77 606.2 2962.11 598.197C2954.79 590.193 2944.86 583.233 2932.32 577.317C2920.13 571.401 2906.02 566.181 2890 561.657C2874.32 556.786 2858.12 551.566 2841.4 545.998C2825.03 540.43 2808.83 533.992 2792.81 526.684C2777.13 519.029 2763.02 509.459 2750.48 497.975C2738.29 486.491 2728.36 472.398 2720.7 455.694C2713.38 438.991 2709.72 418.807 2709.72 395.144C2709.72 373.22 2714.08 352.341 2722.79 332.505C2731.5 312.67 2744.21 295.444 2760.93 280.829C2778 265.865 2799.08 254.033 2824.16 245.334C2849.59 236.286 2878.85 231.762 2911.95 231.762C2948.87 231.762 2982.49 237.852 3012.79 250.031C3043.1 262.211 3068.36 278.219 3088.56 298.054L3059.3 344.511Z" fill="#F2F4F8"/>
<path d="M3370.16 784.024C3323.48 784.024 3287.6 770.974 3262.52 744.875C3237.78 718.427 3225.42 682.062 3225.42 635.779V336.681H3170.55C3163.58 336.681 3157.66 334.419 3152.78 329.895C3147.91 325.372 3145.47 318.586 3145.47 309.538V258.383L3231.69 244.29L3258.86 98.1334C3260.6 91.1736 3263.91 85.7798 3268.79 81.9518C3273.66 78.124 3279.94 76.21 3287.6 76.21H3354.48V244.812H3497.66V336.681H3354.48V626.906C3354.48 643.609 3358.49 656.659 3366.5 666.055C3374.86 675.451 3386.18 680.148 3400.47 680.148C3408.48 680.148 3415.1 679.278 3420.32 677.538C3425.9 675.45 3430.6 673.362 3434.43 671.275C3438.61 669.187 3442.27 667.273 3445.41 665.533C3448.54 663.445 3451.68 662.401 3454.81 662.401C3458.64 662.401 3461.78 663.445 3464.22 665.533C3466.65 667.273 3469.27 670.057 3472.05 673.885L3510.72 736.523C3491.91 752.182 3470.31 764.014 3445.93 772.018C3421.54 780.022 3396.29 784.024 3370.16 784.024Z" fill="#F2F4F8"/>
<path d="M3863.51 547.042C3826.23 548.782 3794.88 552.088 3769.45 556.96C3744.02 561.483 3723.64 567.399 3708.31 574.707C3692.99 582.015 3682.01 590.541 3675.39 600.284C3668.78 610.028 3665.47 620.642 3665.47 632.126C3665.47 654.745 3672.08 670.927 3685.32 680.67C3698.91 690.414 3716.5 695.286 3738.1 695.286C3764.57 695.286 3787.39 690.588 3806.55 681.192C3826.06 671.449 3845.04 656.833 3863.51 637.345V547.042ZM3567.75 314.758C3629.41 258.383 3703.61 230.196 3790.35 230.196C3821.7 230.196 3849.75 235.416 3874.48 245.856C3899.21 255.947 3920.11 270.215 3937.18 288.659C3954.25 306.754 3967.14 328.503 3975.85 353.907C3984.91 379.31 3989.44 407.149 3989.44 437.425V775.672H3930.91C3918.72 775.672 3909.32 773.932 3902.7 770.452C3896.08 766.624 3890.85 759.142 3887.02 748.007L3875.53 709.38C3861.94 721.559 3848.7 732.347 3835.81 741.743C3822.92 750.79 3809.51 758.446 3795.58 764.71C3781.64 770.974 3766.66 775.672 3750.64 778.804C3734.96 782.284 3717.55 784.024 3698.39 784.024C3675.74 784.024 3654.84 781.066 3635.68 775.15C3616.52 768.886 3599.97 759.664 3586.04 747.485C3572.11 735.305 3561.31 720.167 3553.64 702.072C3545.98 683.976 3542.15 662.923 3542.15 638.911C3542.15 625.34 3544.41 611.942 3548.94 598.718C3553.47 585.147 3560.78 572.271 3570.89 560.091C3581.34 547.912 3594.75 536.428 3611.12 525.64C3627.5 514.853 3647.53 505.457 3671.21 497.453C3695.25 489.449 3723.12 483.011 3754.82 478.14C3786.52 472.92 3822.75 469.788 3863.51 468.744V437.425C3863.51 401.582 3855.84 375.134 3840.52 358.083C3825.19 340.683 3803.07 331.983 3774.15 331.983C3753.25 331.983 3735.83 334.419 3721.9 339.291C3708.31 344.163 3696.3 349.731 3685.84 355.995C3675.39 361.911 3665.81 367.304 3657.11 372.176C3648.74 377.048 3639.34 379.484 3628.89 379.484C3619.83 379.484 3612.17 377.222 3605.9 372.698C3599.63 367.826 3594.58 362.259 3590.74 355.995L3567.75 314.758Z" fill="#F2F4F8"/>
<path d="M4495.06 353.385C4491.23 358.257 4487.39 362.085 4483.56 364.869C4480.08 367.652 4474.85 369.044 4467.89 369.044C4461.27 369.044 4454.82 367.13 4448.55 363.303C4442.28 359.127 4434.79 354.603 4426.08 349.731C4417.37 344.511 4406.92 339.987 4394.73 336.159C4382.89 331.983 4368.08 329.895 4350.31 329.895C4327.67 329.895 4307.81 334.071 4290.75 342.423C4273.68 350.427 4259.39 362.085 4247.9 377.396C4236.75 392.708 4228.39 411.325 4222.82 433.249C4217.24 454.824 4214.46 479.358 4214.46 506.849C4214.46 535.384 4217.42 560.787 4223.34 583.059C4229.61 605.33 4238.49 624.122 4249.99 639.433C4261.48 654.397 4275.42 665.881 4291.79 673.885C4308.16 681.54 4326.63 685.368 4347.18 685.368C4367.73 685.368 4384.28 682.932 4396.82 678.06C4409.71 672.841 4420.51 667.273 4429.22 661.357C4437.93 655.093 4445.42 649.525 4451.69 644.653C4458.31 639.433 4465.62 636.823 4473.63 636.823C4484.08 636.823 4491.92 640.825 4497.15 648.829L4534.25 695.808C4519.96 712.511 4504.46 726.605 4487.74 738.089C4471.02 749.224 4453.6 758.272 4435.49 765.232C4417.72 771.844 4399.26 776.542 4380.1 779.326C4361.29 782.11 4342.48 783.502 4323.67 783.502C4290.57 783.502 4259.39 777.412 4230.13 765.232C4200.87 752.705 4175.26 734.609 4153.32 710.945C4131.37 687.282 4113.95 658.399 4101.06 624.296C4088.52 589.845 4082.25 550.696 4082.25 506.849C4082.25 467.526 4087.83 431.161 4098.97 397.754C4110.47 363.999 4127.19 334.941 4149.14 310.582C4171.09 285.875 4198.26 266.561 4230.65 252.641C4263.05 238.722 4300.33 231.762 4342.48 231.762C4382.54 231.762 4417.55 238.2 4447.51 251.076C4477.81 263.951 4504.98 282.395 4529.02 306.406L4495.06 353.385Z" fill="#F2F4F8"/>
<path d="M4744.22 0V444.21H4768.26C4776.97 444.21 4783.76 443.166 4788.64 441.079C4793.87 438.643 4799.09 433.945 4804.32 426.985L4937.56 262.559C4943.14 255.251 4949.23 249.684 4955.85 245.856C4962.82 242.028 4971.7 240.114 4982.5 240.114H5100.59L4933.91 438.991C4922.06 454.65 4909.17 466.656 4895.24 475.008C4902.55 480.228 4909 486.317 4914.57 493.277C4920.49 500.237 4926.07 507.719 4931.29 515.723L5110 775.672H4993.47C4983.37 775.672 4974.66 774.106 4967.35 770.974C4960.03 767.494 4953.94 761.404 4949.06 752.704L4812.15 549.652C4807.28 541.648 4802.23 536.428 4797 533.992C4791.78 531.556 4783.94 530.338 4773.49 530.338H4744.22V775.672H4615.16V0H4744.22Z" fill="#F2F4F8"/>
</svg>
